HIERARCHY
ROOT Root
{
  OFFSET 0.0 0.0 0.0
  CHANNELS 6 Xposition Yposition Zposition Zrotation Yrotation Xrotation
  JOINT Hips
  {
    OFFSET 0.0 100.0 0.0
    CHANNELS 6 Xposition Yposition Zposition Zrotation Yrotation Xrotation
    JOINT Spine1
    {
      OFFSET 5.003913 -0.037094 -0.013727
      CHANNELS 3 Zrotation Yrotation Xrotation
      JOINT Spine2
      {
        OFFSET 7.125363 -1e-06 0.0
        CHANNELS 3 Zrotation Yrotation Xrotation
        JOINT Chest
        {
          OFFSET 7.594027 1e-06 0.0
          CHANNELS 3 Zrotation Yrotation Xrotation
          JOINT Neck1
          {
            OFFSET 26.313086 -0.460272 -0.181672
            CHANNELS 3 Zrotation Yrotation Xrotation
            JOINT Neck2
            {
              OFFSET 8.045911 0.0 0.0
              CHANNELS 3 Zrotation Yrotation Xrotation
              JOINT Head
              {
                OFFSET 6.432774 0.0 0.0
                CHANNELS 3 Zrotation Yrotation Xrotation
                JOINT HeadEnd
                {
                  OFFSET 16.169773 0.06451 0.00362
                  CHANNELS 3 Zrotation Yrotation Xrotation
                }
                JOINT Jaw
                {
                  OFFSET 0.108741 3.12938 0.002639
                  CHANNELS 3 Zrotation Yrotation Xrotation
                }
                JOINT LeftEye
                {
                  OFFSET 4.45173 8.166359 3.206392
                  CHANNELS 3 Zrotation Yrotation Xrotation
                }
                JOINT RightEye
                {
                  OFFSET 4.436895 8.135758 -3.222429
                  CHANNELS 3 Zrotation Yrotation Xrotation
                }
              }
            }
          }
          JOINT LeftShoulder
          {
            OFFSET 23.218927 5.195579 1.621656
            CHANNELS 3 Zrotation Yrotation Xrotation
            JOINT LeftArm
            {
              OFFSET 15.902118 2e-06 -2e-06
              CHANNELS 3 Zrotation Yrotation Xrotation
              JOINT LeftForeArm
              {
                OFFSET 28.739307 0.0 -1e-06
                CHANNELS 3 Zrotation Yrotation Xrotation
                JOINT LeftHand
                {
                  OFFSET 27.093981 -4e-06 0.0
                  CHANNELS 3 Zrotation Yrotation Xrotation
                  JOINT LeftHandThumb1
                  {
                    OFFSET 2.276781 3.380274 0.83384
                    CHANNELS 3 Zrotation Yrotation Xrotation
                    JOINT LeftHandThumb2
                    {
                      OFFSET 4.705309 -1e-06 -1e-06
                      CHANNELS 3 Zrotation Yrotation Xrotation
                      JOINT LeftHandThumb3
                      {
                        OFFSET 2.798515 0.0 3e-06
                        CHANNELS 3 Zrotation Yrotation Xrotation
                        JOINT LeftHandThumbEnd
                        {
                          OFFSET 3.180793 4e-06 -4e-06
                          CHANNELS 3 Zrotation Yrotation Xrotation
                        }
                      }
                    }
                  }
                  JOINT LeftHandIndex1
                  {
                    OFFSET 3.247786 2.352677 0.137192
                    CHANNELS 3 Zrotation Yrotation Xrotation
                    JOINT LeftHandIndex2
                    {
                      OFFSET 6.367095 1e-06 0.0
                      CHANNELS 3 Zrotation Yrotation Xrotation
                      JOINT LeftHandIndex3
                      {
                        OFFSET 3.662364 0.0 0.0
                        CHANNELS 3 Zrotation Yrotation Xrotation
                        JOINT LeftHandIndex4
                        {
                          OFFSET 2.329242 4e-06 -4e-06
                          CHANNELS 3 Zrotation Yrotation Xrotation
                          JOINT LeftHandIndexEnd
                          {
                            OFFSET 2.767823 1e-06 0.0
                            CHANNELS 3 Zrotation Yrotation Xrotation
                          }
                        }
                      }
                    }
                  }
                  JOINT LeftHandMiddle1
                  {
                    OFFSET 3.163612 0.945023 -0.406112
                    CHANNELS 3 Zrotation Yrotation Xrotation
                    JOINT LeftHandMiddle2
                    {
                      OFFSET 6.276789 3e-06 0.0
                      CHANNELS 3 Zrotation Yrotation Xrotation
                      JOINT LeftHandMiddle3
                      {
                        OFFSET 4.35652 -1e-06 4e-06
                        CHANNELS 3 Zrotation Yrotation Xrotation
                        JOINT LeftHandMiddle4
                        {
                          OFFSET 2.996877 0.0 8e-06
                          CHANNELS 3 Zrotation Yrotation Xrotation
                          JOINT LeftHandMiddleEnd
                          {
                            OFFSET 2.323256 3e-06 -4e-06
                            CHANNELS 3 Zrotation Yrotation Xrotation
                          }
                        }
                      }
                    }
                  }
                  JOINT LeftHandRing1
                  {
                    OFFSET 2.882606 -0.309162 0.107445
                    CHANNELS 3 Zrotation Yrotation Xrotation
                    JOINT LeftHandRing2
                    {
                      OFFSET 6.033198 0.0 4e-06
                      CHANNELS 3 Zrotation Yrotation Xrotation
                      JOINT LeftHandRing3
                      {
                        OFFSET 4.350578 3e-06 0.0
                        CHANNELS 3 Zrotation Yrotation Xrotation
                        JOINT LeftHandRing4
                        {
                          OFFSET 2.651321 2e-06 -7e-06
                          CHANNELS 3 Zrotation Yrotation Xrotation
                          JOINT LeftHandRingEnd
                          {
                            OFFSET 1.937663 1e-06 -4e-06
                            CHANNELS 3 Zrotation Yrotation Xrotation
                          }
                        }
                      }
                    }
                  }
                  JOINT LeftHandPinky1
                  {
                    OFFSET 2.865315 -1.525436 0.575687
                    CHANNELS 3 Zrotation Yrotation Xrotation
                    JOINT LeftHandPinky2
                    {
                      OFFSET 5.54936 1e-06 -8e-06
                      CHANNELS 3 Zrotation Yrotation Xrotation
                      JOINT LeftHandPinky3
                      {
                        OFFSET 3.070974 0.0 -4e-06
                        CHANNELS 3 Zrotation Yrotation Xrotation
                        JOINT LeftHandPinky4
                        {
                          OFFSET 1.549672 1e-06 0.0
                          CHANNELS 3 Zrotation Yrotation Xrotation
                          JOINT LeftHandPinkyEnd
                          {
                            OFFSET 1.952123 0.0 0.0
                            CHANNELS 3 Zrotation Yrotation Xrotation
                          }
                        }
                      }
                    }
                  }
                }
              }
            }
          }
          JOINT RightShoulder
          {
            OFFSET 23.161716 5.296122 -1.380114
            CHANNELS 3 Zrotation Yrotation Xrotation
            JOINT RightArm
            {
              OFFSET -16.027195 -2e-06 1.1e-05
              CHANNELS 3 Zrotation Yrotation Xrotation
              JOINT RightForeArm
              {
                OFFSET -28.736639 4e-06 2e-06
                CHANNELS 3 Zrotation Yrotation Xrotation
                JOINT RightHand
                {
                  OFFSET -27.133619 6e-06 0.0
                  CHANNELS 3 Zrotation Yrotation Xrotation
                  JOINT RightHandThumb1
                  {
                    OFFSET -2.274328 -3.351035 -0.83067
                    CHANNELS 3 Zrotation Yrotation Xrotation
                    JOINT RightHandThumb2
                    {
                      OFFSET -4.703594 -3e-06 2e-06
                      CHANNELS 3 Zrotation Yrotation Xrotation
                      JOINT RightHandThumb3
                      {
                        OFFSET -2.794935 -4e-06 -3e-06
                        CHANNELS 3 Zrotation Yrotation Xrotation
                        JOINT RightHandThumbEnd
                        {
                          OFFSET -3.183852 4e-06 1e-06
                          CHANNELS 3 Zrotation Yrotation Xrotation
                        }
                      }
                    }
                  }
                  JOINT RightHandIndex1
                  {
                    OFFSET -3.253496 -2.33755 -0.127667
                    CHANNELS 3 Zrotation Yrotation Xrotation
                    JOINT RightHandIndex2
                    {
                      OFFSET -6.344434 0.0 0.0
                      CHANNELS 3 Zrotation Yrotation Xrotation
                      JOINT RightHandIndex3
                      {
                        OFFSET -3.654871 0.0 -8e-06
                        CHANNELS 3 Zrotation Yrotation Xrotation
                        JOINT RightHandIndex4
                        {
                          OFFSET -2.327586 -1e-06 0.0
                          CHANNELS 3 Zrotation Yrotation Xrotation
                          JOINT RightHandIndexEnd
                          {
                            OFFSET -2.770001 3e-06 8e-06
                            CHANNELS 3 Zrotation Yrotation Xrotation
                          }
                        }
                      }
                    }
                  }
                  JOINT RightHandMiddle1
                  {
                    OFFSET -3.168223 -0.944764 0.411762
                    CHANNELS 3 Zrotation Yrotation Xrotation
                    JOINT RightHandMiddle2
                    {
                      OFFSET -6.266691 -1e-06 -4e-06
                      CHANNELS 3 Zrotation Yrotation Xrotation
                      JOINT RightHandMiddle3
                      {
                        OFFSET -4.348901 0.0 0.0
                        CHANNELS 3 Zrotation Yrotation Xrotation
                        JOINT RightHandMiddle4
                        {
                          OFFSET -3.00024 2e-06 -4e-06
                          CHANNELS 3 Zrotation Yrotation Xrotation
                          JOINT RightHandMiddleEnd
                          {
                            OFFSET -2.321477 -4e-06 -4e-06
                            CHANNELS 3 Zrotation Yrotation Xrotation
                          }
                        }
                      }
                    }
                  }
                  JOINT RightHandRing1
                  {
                    OFFSET -2.885654 0.293261 -0.119232
                    CHANNELS 3 Zrotation Yrotation Xrotation
                    JOINT RightHandRing2
                    {
                      OFFSET -6.032835 -1e-06 -4e-06
                      CHANNELS 3 Zrotation Yrotation Xrotation
                      JOINT RightHandRing3
                      {
                        OFFSET -4.33881 0.0 -4e-06
                        CHANNELS 3 Zrotation Yrotation Xrotation
                        JOINT RightHandRing4
                        {
                          OFFSET -2.654903 -4e-06 -4e-06
                          CHANNELS 3 Zrotation Yrotation Xrotation
                          JOINT RightHandRingEnd
                          {
                            OFFSET -1.935122 0.0 4e-06
                            CHANNELS 3 Zrotation Yrotation Xrotation
                          }
                        }
                      }
                    }
                  }
                  JOINT RightHandPinky1
                  {
                    OFFSET -2.866241 1.503904 -0.60527
                    CHANNELS 3 Zrotation Yrotation Xrotation
                    JOINT RightHandPinky2
                    {
                      OFFSET -5.553177 -2e-06 0.0
                      CHANNELS 3 Zrotation Yrotation Xrotation
                      JOINT RightHandPinky3
                      {
                        OFFSET -3.062664 -1e-06 -4e-06
                        CHANNELS 3 Zrotation Yrotation Xrotation
                        JOINT RightHandPinky4
                        {
                          OFFSET -1.546529 2e-06 4e-06
                          CHANNELS 3 Zrotation Yrotation Xrotation
                          JOINT RightHandPinkyEnd
                          {
                            OFFSET -1.952341 0.0 -4e-06
                            CHANNELS 3 Zrotation Yrotation Xrotation
                          }
                        }
                      }
                    }
                  }
                }
              }
            }
          }
        }
      }
    }
    JOINT LeftLeg
    {
      OFFSET -8.443107 2.567604 10.043214
      CHANNELS 3 Zrotation Yrotation Xrotation
      JOINT LeftShin
      {
        OFFSET 43.229198 1e-06 -1e-06
        CHANNELS 3 Zrotation Yrotation Xrotation
        JOINT LeftFoot
        {
          OFFSET 42.298611 1e-06 1e-06
          CHANNELS 3 Zrotation Yrotation Xrotation
          JOINT LeftToeBase
          {
            OFFSET 14.165858 1e-06 0.0
            CHANNELS 3 Zrotation Yrotation Xrotation
            JOINT LeftToeEnd
            {
              OFFSET 6.7141 -0.234461 0.0
              CHANNELS 3 Zrotation Yrotation Xrotation
            }
          }
        }
      }
    }
    JOINT RightLeg
    {
      OFFSET -8.303923 2.592729 -10.047278
      CHANNELS 3 Zrotation Yrotation Xrotation
      JOINT RightShin
      {
        OFFSET -43.369682 0.0 1e-06
        CHANNELS 3 Zrotation Yrotation Xrotation
        JOINT RightFoot
        {
          OFFSET -42.260784 4e-06 2e-06
          CHANNELS 3 Zrotation Yrotation Xrotation
          JOINT RightToeBase
          {
            OFFSET -14.222245 -2e-06 -1e-06
            CHANNELS 3 Zrotation Yrotation Xrotation
            JOINT RightToeEnd
            {
              OFFSET -6.660062 0.232574 -2e-06
              CHANNELS 3 Zrotation Yrotation Xrotation
            }
          }
        }
      }
    }
  }
}
MOTION
Frames: 4
Frame Time: 0.03333333333333333
0.0 0.0 0.0 0.0 -0.0 0.0 -17.487587 48.007572 129.175842 77.179817 -66.504852 100.082413 8.138113 1.237461 0.808324 -5.985703 -0.14785 1.018485 20.882921 3.0917 1.602867 18.435682 -2.3301 2.76608 -2.799607 -0.495082 -1.495237 -25.374458 -1.740671 -2.994065 6e-06 0.0 0.0 -0.259206 -0.11237 0.033955 -0.045893 0.028494 0.133123 0.079107 -0.252289 -0.071735 -44.192627 -53.195873 47.200146 104.402489 -0.570827 -27.824945 7.868793 -0.286497 0.015304 90.962372 77.208603 88.111427 17.636629 -26.322727 52.411179 -19.466654 -14.395597 29.410378 -1e-06 -8.774821 -2e-06 15.581689 -18.38661 5.822477 -0.609776 -1.795653 -3.889327 -4.807089 -11.046809 -2.937849 4e-06 -20.976017 1e-06 -5.019971 -25.033556 -4.03188 6e-06 0.0 -0.0 -10.634535 -5.686969 -3.565587 10.573275 -17.922949 -3.113899 2e-06 -13.821206 2e-06 -0.501779 -31.181498 -4.027014 -10.012329 -58.102165 6.261515 -13.982714 -7.150197 -2.875041 13.77273 -8.401491 -3.21824 0.347733 -34.211544 0.771656 -0.963029 -17.733366 2.621021 -0.0 -1e-06 -1e-06 -17.346416 -20.095211 -4.20178 21.757557 -1.638375 3.866427 1e-06 -6.338822 1e-06 -1.69759 -22.591738 -6.194005 -0.0 -5e-06 -2e-06 171.714188 -69.354744 9.321452 63.179905 10.648067 -67.713127 33.827873 1.507871 -0.028823 51.238873 55.36451 51.67561 22.182117 -20.375898 49.933315 -16.701811 -16.74353 28.476526 -5e-06 -12.690601 1e-06 15.204164 -17.999672 2.720749 -0.105919 -1.513855 -4.275881 -5.039039 -5.612869 -2.953554 5e-06 -11.020519 -1e-06 -6.111295 -15.895328 -3.840469 -0.0 0.0 -1e-06 -10.283369 -5.680286 -4.341838 11.028294 -11.302405 -2.372633 -1.384267 -14.238577 -6.32012 -0.625437 -26.924183 -3.827599 -3.476067 -48.439404 -4.631758 -13.708524 -7.363472 -3.720939 18.141148 -14.052737 -3.242671 7e-06 -18.787266 -1e-06 -0.429711 -8.456041 2.555505 -0.0 1e-06 1e-06 -15.923534 -20.094479 -5.473584 30.41921 -7.190829 1.735925 3e-06 -8.162925 1e-06 -1.861902 -22.861467 -6.16794 -1e-06 -2e-06 -1e-06 140.267273 -11.731707 -1.884964 84.378387 -3.933867 0.268719 -56.728016 3.677645 -8.461073 -10.594106 1.426913 2.789579 -0.999999 0.0 -0.0 -68.168274 4.40522 0.206344 110.641426 -0.406299 -0.147812 -75.45591 3.392026 -1.295163 -25.736002 0.916554 1.274891 -1.000002 0.0 -0.0 
0.0 0.0 0.0 0.0 -0.0 0.0 -17.871426 48.41534 130.176453 77.376022 -66.7724 101.351646 8.326615 1.030436 0.71536 -5.911311 -0.064984 0.987547 20.788282 2.509633 1.394891 18.74917 -1.616306 2.633503 -2.80636 -0.50074 -1.769543 -25.495838 -2.290558 -3.358556 6e-06 -0.0 0.0 -0.25191 -0.092169 0.030547 -0.05551 0.016906 0.123749 0.067583 -0.202565 -0.068614 -43.866962 -53.839279 46.974781 104.801445 0.107494 -26.641226 7.908301 -0.26254 -0.010269 93.53389 76.914154 91.783676 17.636627 -26.322741 52.411213 -19.466667 -14.3956 29.410398 -2e-06 -8.774823 -1e-06 15.509345 -18.410583 5.880179 -0.609777 -1.795654 -3.889329 -4.80709 -11.046814 -2.937851 3e-06 -20.976027 -1e-06 -5.019973 -25.033571 -4.031882 6e-06 -0.0 0.0 -10.634536 -5.686974 -3.565588 10.573275 -17.922956 -3.113902 2e-06 -13.821214 0.0 -0.501779 -31.181511 -4.027018 -10.059 -58.132252 6.206203 -13.982718 -7.150201 -2.875042 13.772732 -8.401496 -3.218243 0.347731 -34.211571 0.771654 -0.96303 -17.733376 2.621019 -0.0 -0.0 -0.0 -17.346426 -20.095226 -4.201782 21.757566 -1.638375 3.866428 1e-06 -6.338827 0.0 -1.69759 -22.591757 -6.194009 0.0 -4e-06 -2e-06 171.92392 -67.698883 8.97835 61.376987 13.973017 -67.08593 27.188393 0.762181 -0.19207 45.615013 56.449108 44.497726 22.182119 -20.375895 49.933323 -16.701813 -16.743528 28.476536 -3e-06 -12.690601 1e-06 15.599394 -17.903889 2.44051 -0.105919 -1.513856 -4.275883 -5.039041 -5.61287 -2.953556 4e-06 -11.020523 -2e-06 -6.111297 -15.895334 -3.840474 -0.0 -0.0 0.0 -10.283371 -5.680289 -4.341838 11.028296 -11.302405 -2.372633 -1.384268 -14.238581 -6.320121 -0.625437 -26.924189 -3.827603 -3.448488 -48.692253 -4.499673 -13.708526 -7.363479 -3.720939 18.141151 -14.052739 -3.242675 6e-06 -18.78727 -3e-06 -0.429711 -8.456045 2.555504 -0.0 -0.0 1e-06 -15.923536 -20.094486 -5.473586 30.419214 -7.190827 1.735927 1e-06 -8.162927 -0.0 -1.861903 -22.861473 -6.167942 -2e-06 -5e-06 -1e-06 135.606918 -10.958192 -1.368305 92.327576 -3.587826 0.032914 -58.317097 2.318312 -8.155909 -10.781834 1.463514 2.83974 -0.999999 0.0 -0.0 -67.213905 3.83682 0.296531 109.034782 -0.044374 -0.146525 -74.609062 3.051269 -1.416038 -25.814766 0.892163 1.282135 -1.000002 -0.0 0.0 
0.0 0.0 0.0 0.0 -0.0 0.0 -18.28957 48.776611 131.275269 77.410339 -67.015656 102.745209 8.524561 0.804033 0.605258 -5.873542 -0.068674 0.935253 20.757462 1.959142 1.163775 18.989035 -0.741628 2.624042 -2.813754 -0.575299 -2.00213 -25.563698 -2.732794 -3.640033 6e-06 0.0 -0.0 -0.252834 -0.092437 0.027489 -0.077056 -0.009283 0.110121 0.042741 -0.178855 -0.059586 -43.646069 -54.43964 46.846634 105.129707 0.683153 -25.583044 8.149033 -0.257438 -0.016931 96.039543 76.349915 95.151054 17.636627 -26.322729 52.411186 -19.466661 -14.395596 29.410389 -2e-06 -8.774819 -1e-06 15.454144 -18.400434 5.916171 -0.609776 -1.795654 -3.889328 -4.807088 -11.04681 -2.93785 4e-06 -20.976019 -0.0 -5.01997 -25.03356 -4.031879 6e-06 -0.0 -0.0 -10.634531 -5.68697 -3.565587 10.573271 -17.922951 -3.113901 3e-06 -13.821209 1e-06 -0.501777 -31.181505 -4.027014 -10.135936 -58.104462 6.163338 -13.982712 -7.150198 -2.875042 13.772727 -8.401492 -3.218242 0.347733 -34.211555 0.771655 -0.963029 -17.733368 2.621019 -0.0 -0.0 0.0 -17.346415 -20.095217 -4.20178 21.757555 -1.638375 3.866426 1e-06 -6.338823 1e-06 -1.69759 -22.591742 -6.194005 -0.0 -3e-06 -2e-06 171.474426 -66.768806 9.638037 60.454052 15.581676 -65.848808 23.158024 0.071989 -0.257935 41.525272 56.895443 39.844894 22.18211 -20.375891 49.933319 -16.701811 -16.743528 28.476528 -3e-06 -12.690599 1e-06 15.93427 -17.769339 2.25218 -0.10592 -1.513856 -4.275882 -5.03904 -5.612871 -2.953556 3e-06 -11.020523 -1e-06 -6.111297 -15.895334 -3.840471 0.0 -2e-06 -0.0 -10.283369 -5.680289 -4.341837 11.028292 -11.302402 -2.372634 -1.384268 -14.238579 -6.320121 -0.625438 -26.924187 -3.827602 -3.505867 -48.873638 -4.356383 -13.708524 -7.363478 -3.720939 18.14115 -14.052739 -3.242676 5e-06 -18.78727 -2e-06 -0.429713 -8.456045 2.555503 -1e-06 2e-06 1e-06 -15.923534 -20.094482 -5.473585 30.419207 -7.190823 1.735924 3e-06 -8.162927 -1e-06 -1.861902 -22.861467 -6.167942 -1e-06 -4e-06 -1e-06 130.893097 -10.020906 -0.604103 99.592155 -3.080234 -0.096301 -59.684078 1.07522 -7.77894 -10.837474 1.507643 2.871007 -0.999998 -0.0 -1e-06 -66.094337 3.284434 0.266847 107.332565 0.355247 -0.146719 -74.046967 2.657404 -1.447669 -25.759674 0.861334 1.301826 -1.000002 0.0 0.0 
0.0 0.0 0.0 0.0 -0.0 0.0 -18.731777 49.060352 132.411087 77.453804 -67.134811 103.980278 8.740331 0.544465 0.485875 -5.834846 -0.136634 0.88926 20.81679 1.449186 0.942988 19.19002 0.125063 2.677089 -2.825487 -0.670356 -2.14675 -25.505831 -3.053361 -3.876262 6e-06 -0.0 -0.0 -0.25581 -0.110448 0.026204 -0.101333 -0.039614 0.096759 0.016857 -0.185757 -0.047673 -43.488228 -55.003071 46.74754 105.389244 1.128888 -24.789036 8.40542 -0.287509 -0.009781 97.810844 75.528 97.438194 17.636629 -26.322731 52.411186 -19.46666 -14.395596 29.410393 -1e-06 -8.774821 -2e-06 15.424833 -18.335623 5.883668 -0.609776 -1.795654 -3.889328 -4.807088 -11.046813 -2.93785 4e-06 -20.976019 0.0 -5.01997 -25.033556 -4.03188 6e-06 -2e-06 0.0 -10.634534 -5.686972 -3.565588 10.573272 -17.922951 -3.1139 2e-06 -13.821212 1e-06 -0.501777 -31.181507 -4.027015 -10.192688 -57.97789 6.10339 -13.982712 -7.150199 -2.875042 13.772727 -8.401493 -3.218241 0.347732 -34.211555 0.771655 -0.963029 -17.733372 2.621019 -0.0 -0.0 -1e-06 -17.346418 -20.095221 -4.201782 21.757557 -1.638375 3.866428 0.0 -6.338824 1e-06 -1.697589 -22.591745 -6.194006 -0.0 -3e-06 -2e-06 170.572235 -66.334175 10.892673 60.341293 16.108101 -64.714912 20.838785 -0.460253 -0.282145 39.136139 57.345352 37.547428 22.182108 -20.375895 49.933327 -16.701813 -16.74353 28.476534 -3e-06 -12.6906 0.0 16.204927 -17.611385 2.134128 -0.105919 -1.513855 -4.275882 -5.039042 -5.612873 -2.953558 4e-06 -11.020525 -1e-06 -6.111297 -15.895334 -3.840472 -1e-06 0.0 1e-06 -10.28337 -5.680288 -4.34184 11.028291 -11.302403 -2.372632 -1.384269 -14.238581 -6.320123 -0.625439 -26.924187 -3.827601 -3.570184 -48.996056 -4.241948 -13.708525 -7.363476 -3.72094 18.141148 -14.052737 -3.242674 5e-06 -18.787266 -1e-06 -0.429712 -8.456042 2.555503 -0.0 2e-06 -1e-06 -15.923536 -20.094482 -5.473586 30.41921 -7.190822 1.735927 1e-06 -8.162925 0.0 -1.861905 -22.861469 -6.167942 -0.0 -0.0 0.0 126.311455 -9.01035 0.255551 105.888214 -2.503839 -0.110721 -60.833115 0.12052 -7.302852 -10.900211 1.57472 2.87855 -1.000001 0.0 0.0 -64.792511 2.884131 0.200246 105.590477 0.747995 -0.151514 -73.406853 2.308743 -1.34286 -25.63674 0.828819 1.32502 -1.000002 -0.0 0.0 
